<svg width="36" height="37" viewBox="0 0 36 37" fill="none" xmlns="http://www.w3.org/2000/svg">
<path d="M0.0012638 0.202725C-0.0566585 0.34753 1.88374 8.45666 4.31648 18.2455C6.74922 28.0344 8.74754 36.0856 8.7765 36.1435C8.7765 36.2015 8.95027 36.2015 9.15299 36.1435C9.61637 36.0277 36 10.7446 36 10.426C36 10.3102 35.7683 10.1364 35.5077 10.0495C35.218 9.9916 27.1958 7.67471 17.6965 4.95236C8.19728 2.23001 0.348798 -3.62191e-06 0.261914 -3.62191e-06C0.175031 -3.62191e-06 0.0591861 0.0868799 0.0012638 0.202725ZM4.80882 2.0852C6.60441 2.57754 8.11039 3.04092 8.19728 3.1278C8.28416 3.18573 7.09675 4.40209 5.59077 5.82119C4.08479 7.21133 2.8105 8.31185 2.75258 8.25393C2.63673 8.13809 0.985944 1.73767 0.956982 1.36117C0.956982 1.01364 1.3914 1.10052 4.80882 2.0852ZM16.8567 5.67639C17.0304 5.82119 12.0202 10.6867 11.6726 10.7156C11.4988 10.7156 9.90598 4.48898 9.93495 3.88079C9.93495 3.56222 16.4512 5.24197 16.8567 5.67639ZM9.90598 7.3851C10.3694 9.29653 10.7169 10.8894 10.659 10.9763C10.5142 11.0921 3.8531 9.26757 3.56349 9.06484C3.4766 8.97796 4.66401 7.79055 6.16999 6.37145C7.67597 4.98132 8.95027 3.85183 8.97923 3.88079C9.00819 3.88079 9.41364 5.47366 9.90598 7.3851ZM22.2145 7.09548C24.1259 7.64575 25.7188 8.13809 25.7767 8.19601C25.8057 8.25393 24.6183 9.44134 23.1123 10.8315C21.3746 12.4243 20.303 13.2353 20.2162 12.9746C19.9845 12.2506 18.6233 6.69003 18.6233 6.40042C18.6233 5.99496 18.2468 5.93704 22.2145 7.09548ZM18.6523 10.0206C19.1156 11.903 19.4342 13.4669 19.3763 13.5249C19.3473 13.5828 18.4495 13.3801 17.4359 13.0615C16.4222 12.7429 14.8004 12.2795 13.8447 12.0189L12.107 11.5265L14.8583 8.949C16.3643 7.55886 17.6386 6.45834 17.7255 6.51626C17.7834 6.57418 18.1889 8.16705 18.6523 10.0206ZM30.9318 9.58614C32.6695 10.0785 34.2044 10.5708 34.3203 10.6867C34.4361 10.8025 33.3645 12.0478 31.9454 13.4669C30.5263 14.886 29.281 15.9576 29.1941 15.8707C29.1072 15.7838 28.7018 14.3647 28.2963 12.714C27.9198 11.0632 27.5144 9.4703 27.4275 9.18069C27.2248 8.54354 27.1668 8.54354 30.9318 9.58614ZM27.4275 12.5112C27.833 14.2199 28.1805 15.7259 28.1805 15.8707C28.1805 16.0155 26.5297 15.668 24.5024 15.0888L20.8533 14.0462L23.5757 11.5265C25.0527 10.1364 26.3559 9.0938 26.4718 9.20965C26.5587 9.32549 26.9931 10.8025 27.4275 12.5112ZM6.80714 10.8604C8.74754 11.4107 10.3694 11.903 10.4273 11.9899C10.5431 12.1058 5.2722 17.0871 5.01155 17.0871C4.92466 17.0871 4.43232 15.4653 3.96894 13.4669C3.4766 11.4686 3.12907 9.84679 3.18699 9.84679C3.24492 9.84679 4.8957 10.3102 6.80714 10.8604ZM15.5824 13.3511C17.32 13.8434 18.855 14.3358 18.9708 14.4516C19.1156 14.5675 17.9862 15.7838 16.4802 17.174L13.7578 19.6646L13.0048 16.5658C12.5704 14.8571 12.165 13.2353 12.0781 12.9456C11.8753 12.3085 11.8174 12.3085 15.5824 13.3511ZM12.0491 16.2472C12.5125 18.1587 12.8311 19.8094 12.7442 19.8674C12.5994 20.0122 10.0798 19.3461 6.92298 18.3324L5.50389 17.869L8.22624 15.3205C9.73222 13.9303 11.0065 12.7719 11.0934 12.7719C11.1803 12.7429 11.6147 14.3068 12.0491 16.2472ZM24.6183 15.9866C26.4139 16.4789 27.8909 16.9712 27.8909 17.0581C27.8909 17.3477 22.7068 22.4449 22.591 22.2711C22.2434 21.8657 20.7664 15.0598 21.0271 15.0598C21.2008 15.0598 22.7937 15.4653 24.6183 15.9866ZM20.8533 18.9696C21.6063 22.0974 21.6642 22.5897 21.2588 22.4739C20.9981 22.387 19.3184 21.8946 17.4938 21.3733L14.1633 20.4466L16.9146 17.898C18.3916 16.5079 19.6949 15.3494 19.7817 15.3494C19.8686 15.3494 20.361 16.9712 20.8533 18.9696ZM8.74754 19.6936C10.4273 20.1859 11.9912 20.6493 12.2229 20.7362C12.7152 20.881 11.9622 21.7498 9.03715 24.3563L7.09675 26.0651L6.34376 22.9372C5.90934 21.2285 5.50389 19.6067 5.417 19.3171C5.21427 18.68 5.09843 18.68 8.74754 19.6936ZM14.2502 25.0514C14.7135 26.9628 15.0611 28.5557 15.0032 28.6136C14.8873 28.7295 8.51585 26.9628 8.08143 26.7022C7.93663 26.6443 9.06611 25.4279 10.5431 24.0378C12.0491 22.6476 13.2944 21.5181 13.3234 21.5471C13.3524 21.5471 13.7578 23.14 14.2502 25.0514ZM17.8993 22.358C19.6659 22.8504 21.1429 23.3137 21.2008 23.3717C21.2877 23.4296 20.1872 24.646 18.7681 26.0651C17.349 27.4841 16.1326 28.6136 16.0747 28.5268C15.9589 28.4109 14.3081 22.0394 14.2791 21.634C14.2791 21.3154 14.4529 21.3444 17.8993 22.358ZM11.383 28.5557C12.889 28.9612 14.3081 29.3956 14.4819 29.5114C14.7135 29.6273 13.9026 30.6409 12.107 32.4365C10.2535 34.29 9.32676 35.0141 9.23988 34.7244C9.00819 34.1163 7.61805 28.0923 7.61805 27.7448C7.61805 27.6 7.84974 27.5421 8.13935 27.629C8.4 27.7158 9.87702 28.1213 11.383 28.5557Z" fill="url(#paint0_linear_1847_9223)"/>
<defs>
<linearGradient id="paint0_linear_1847_9223" x1="-0.298115" y1="37.3889" x2="24.1397" y2="7.96465" gradientUnits="userSpaceOnUse">
<stop stop-color="#41D1FF"/>
<stop offset="1" stop-color="#BD34FE"/>
</linearGradient>
</defs>
</svg>
